<svg xmlns="http://www.w3.org/2000/svg" x="0px" y="0px" width="20" height="20" viewBox="0 0 50 50">
    <path d="M 11 4 C 9.355469 4 8 5.355469 8 7 L 8 12 L 7 12 C 6.640625 11.99609 4 6.304688 12.18 3.594 6.121094 12.496094 C 5.941406 12.808594 5.941406 13.191406 6.121094 13.503906 C 6.304688 13.816406 6.640625 14.003906 7 14 L 11 14 C 11.359375 14.003906 11.695313 13.816406 11.878906 13.503906 C 12.058594 13.191406 12.058594 12.808594 11.878906 12.496094 C 11.695313 12.183594 11.359375 11.996094 11 12 L 10 12 L 10 7 C 10 6.445313 10.445313 6 11 6 L 39 6 C 39.554688 6 40 6.445313 40 7 L 40 43 C 40 43.554688 39.554688 44 39 44 L 11 44 C 10.445313 44 10 43.554688 10 43 L 10 39 L 8 39 L 8 43 C 8 44.644531 9.355469 46 11 46 L 39 46 C 40.644531 46 42 44.644531 42 43 L 42 7 C 42 5.355469 40.644531 4 39 4 Z M 26.5 14 C 23.910156 14 21.941406 14.976563 20.886719 16.5 C 19.960938 17.824219 19.90625 19.488281 20.410156 21.042969 C 20.167969 21.410156 20 21.855469 20.074219 22.429688 C 20.15625 23.089844 20.347656 23.609375 20.671875 24.003906 C 20.78125 24.140625 20.945313 24.132813 21.082031 24.226563 C 21.179688 24.691406 21.285156 25.160156 21.46875 25.550781 C 21.59375 25.816406 21.726563 26.058594 21.878906 26.277344 C 21.917969 26.324219 22 26.367188 22.035156 26.417969 C 22.027344 26.683594 22.011719 27.097656 22.003906 27.710938 C 21.914063 27.898438 21.695313 28.128906 21.148438 28.390625 C 20.566406 28.675781 19.75 28.945313 18.894531 29.296875 C 18.042969 29.652344 17.136719 30.09375 16.386719 30.828125 C 15.636719 31.566406 15.082031 32.625 15 33.9375 C 14.984375 34.214844 15.082031 34.484375 15.273438 34.683594 C 15.460938 34.886719 15.722656 35 16 35 L 35 35 C 35.277344 35 35.539063 34.886719 35.726563 34.683594 C 35.917969 34.484375 36.015625 34.214844 36 33.9375 C 35.917969 32.625 35.363281 31.566406 34.613281 30.828125 C 33.863281 30.09375 32.957031 29.652344 32.105469 29.296875 C 31.25 28.945313 30.433594 28.675781 29.851563 28.390625 C 29.308594 28.132813 29.09375 27.90625 29 27.71875 L 29 26.28125 C 29.101563 26.128906 29.179688 26.019531 29.367188 25.675781 C 29.574219 25.289063 29.742188 24.769531 29.878906 24.25 C 30.03125 24.148438 30.207031 24.152344 30.328125 24.003906 C 30.652344 23.609375 30.84375 23.089844 30.925781 22.429688 C 30.980469 21.992188 30.933594 21.574219 30.765625 21.207031 C 30.742188 21.15625 30.660156 21.136719 30.628906 21.085938 C 30.738281 20.773438 30.933594 20.496094 30.96875 20.140625 C 31.039063 19.46875 30.992188 18.726563 30.785156 17.988281 C 30.582031 17.253906 30.207031 16.511719 29.570313 15.9375 C 29.085938 15.5 28.414063 15.246094 27.675781 15.121094 L 27.394531 14.554688 C 27.226563 14.214844 26.882813 14 26.5 14 Z M 8 15 L 8 18 L 7 18 C 6.640625 17.996094 6.304688 18.183594 6.121094 18.496094 C 5.941406 18.808594 5.941406 19.191406 6.121094 19.503906 C 6.304688 19.816406 6.640625 20.003906 7 20 L 11 20 C 11.359375 20.003906 11.695313 19.816406 11.878906 19.503906 C 12.058594 19.191406 12.058594 18.808594 11.878906 18.496094 C 11.695313 18.183594 11.359375 17.996094 11 18 L 10 18 L 10 15 Z M 25.9375 16.109375 L 26.105469 16.445313 C 26.273438 16.785156 26.621094 17 27 17 C 27.601563 17 27.945313 17.167969 28.230469 17.421875 C 28.511719 17.679688 28.730469 18.070313 28.859375 18.53125 C 28.992188 18.992188 29.023438 19.511719 28.980469 19.933594 C 28.9375 20.355469 28.773438 20.683594 28.773438 20.683594 C 28.601563 20.890625 28.523438 21.164063 28.554688 21.433594 C 28.585938 21.703125 28.726563 21.945313 28.941406 22.109375 C 28.945313 22.136719 28.949219 22.121094 28.941406 22.183594 C 28.894531 22.546875 28.816406 22.660156 28.796875 22.691406 C 28.398438 22.800781 28.109375 23.136719 28.0625 23.546875 C 28.039063 23.777344 27.832031 24.3125 27.609375 24.722656 C 27.386719 25.132813 27.179688 25.425781 27.179688 25.425781 C 27.0625 25.59375 27 25.792969 27 26 L 27 28.019531 C 27 28.140625 27.023438 28.261719 27.0625 28.375 C 27.417969 29.308594 28.214844 29.824219 28.984375 30.191406 C 29.75 30.5625 30.582031 30.832031 31.339844 31.144531 C 32.09375 31.460938 32.761719 31.816406 33.214844 32.261719 C 33.402344 32.441406 33.414063 32.777344 33.539063 33 L 17.460938 33 C 17.585938 32.777344 17.597656 32.441406 17.785156 32.261719 C 18.238281 31.816406 18.90625 31.460938 19.664063 31.144531 C 20.421875 30.832031 21.25 30.566406 22.019531 30.195313 C 22.789063 29.824219 23.582031 29.308594 23.9375 28.375 C 23.976563 28.261719 24 28.140625 24 28.019531 C 24 27.113281 24.042969 26.042969 24.042969 26.042969 C 24.058594 25.652344 23.847656 25.292969 23.5 25.113281 C 23.496094 25.105469 23.515625 25.125 23.511719 25.113281 C 23.449219 25.03125 23.363281 24.882813 23.28125 24.707031 C 23.117188 24.355469 22.972656 23.890625 22.9375 23.546875 C 22.890625 23.136719 22.601563 22.800781 22.207031 22.691406 C 22.1875 22.660156 22.105469 22.550781 22.058594 22.179688 C 22.058594 22.179688 22.058594 22.179688 22.058594 22.175781 C 22.050781 22.113281 22.0625 22.113281 22.070313 22.097656 C 22.4375 21.8125 22.554688 21.308594 22.359375 20.890625 C 21.808594 19.71875 21.894531 18.546875 22.527344 17.640625 C 23.089844 16.832031 24.234375 16.246094 25.9375 16.109375 Z M 8 21 L 8 24 L 7 24 C 6.640625 23.996094 6.304688 24.183594 6.121094 24.496094 C 5.941406 24.808594 5.941406 25.191406 6.121094 25.503906 C 6.304688 25.816406 6.640625 26.003906 7 26 L 11 26 C 11.359375 26.003906 11.695313 25.816406 11.878906 25.503906 C 12.058594 25.191406 12.058594 24.808594 11.878906 24.496094 C 11.695313 24.183594 11.359375 23.996094 11 24 L 10 24 L 10 21 Z M 8 27 L 8 30 L 7 30 C 6.640625 29.996094 6.304688 30.183594 6.121094 30.496094 C 5.941406 30.808594 5.941406 31.191406 6.121094 31.503906 C 6.304688 31.816406 6.640625 32.003906 7 32 L 11 32 C 11.359375 32.003906 11.695313 31.816406 11.878906 31.503906 C 12.058594 31.191406 12.058594 30.808594 11.878906 30.496094 C 11.695313 30.183594 11.359375 29.996094 11 30 L 10 30 L 10 27 Z M 8 33 L 8 36 L 7 36 C 6.640625 35.996094 6.304688 36.183594 6.121094 36.496094 C 5.941406 36.808594 5.941406 37.191406 6.121094 37.503906 C 6.304688 37.816406 6.640625 38.003906 7 38 L 11 38 C 11.359375 38.003906 11.695313 37.816406 11.878906 37.503906 C 12.058594 37.191406 12.058594 36.808594 11.878906 36.496094 C 11.695313 36.183594 11.359375 35.996094 11 36 L 10 36 L 10 33 Z"></path>
  </svg>